# xmcd CD database file
#
# Track frame offsets:
#	150
#	24957
#	47482
#	71486
#	105563
#	122805
#	145026
#	163841
#	191272
#	217628
#
# Disc length: 3145 seconds
#
# Revision: 0
# Processed by: cddbd v1.5.2PL0 Copyright (c) Steve Scherf et al.
# Submitted via: CDex 1.70beta2
#
DISCID=7b0c470a
DTITLE=Joost Lijbaart Wolfert Brederode - One
DYEAR=2007
DGENRE=Jazz
TTITLE0=Traces
TTITLE1=Empty Room
TTITLE2=Common Fields
TTITLE3=Mitya's Memoirs
TTITLE4=Outline
TTITLE5=After Hours
TTITLE6=Mitchell
TTITLE7=Spring Tide
TTITLE8=Just A Glance
TTITLE9=Home
EXTD=YEAR: 2007
EXTT0=
EXTT1=
EXTT2=
EXTT3=
EXTT4=
EXTT5=
EXTT6=
EXTT7=
EXTT8=
EXTT9=
PLAYORDER=
